<?xml version="1.0" encoding="UTF-8"?>
<svg id="Layer_1" xmlns="http://www.w3.org/2000/svg" width="612" height="597.92" version="1.1" viewBox="0 0 612 597.92">
  <!-- Generator: Adobe Illustrator 30.3.0, SVG Export Plug-In . SVG Version: 2.1.3 Build 182)  -->
  <path d="M11.63,169.04c86.7,64.61,170.46,126.54,253.63,189.25,34.67,26.15,43.56,27.23,77.64,2.06,82.84-61.18,165.65-122.41,248.49-183.6,2.06-1.52,4.27-2.86,8.9-5.95,0,8.37,0,14.29,0,20.21.03,87.35.1,174.69.08,262.04-.01,45.58-12.23,57.95-56.95,57.95-159.56,0-319.12,0-478.68-.03-39.42,0-53.1-13.7-53.1-53,0-94.89,0-189.77,0-288.93Z" fill="#1b2b56"/>
  <path d="M305.81,339.05c-71.67-53.36-143.12-106.55-214.57-159.74-21.46-15.98-42.96-31.9-64.38-47.92-16.4-12.27-15.8-28.79,2.98-37.53,10.07-4.68,22.42-6.15,33.74-6.18,160.76-.38,321.53-.28,482.29-.24,6.86,0,14.94-1.75,20.33,1.19,11.21,6.11,24.54,12.75,30.5,22.96,8.32,14.23-8.79,18.91-17.26,25.23-87.4,65.21-175.07,130.05-262.69,194.96-3.25,2.41-6.75,4.5-10.95,7.28Z" fill="#1b2b56"/>
</svg>