<?xml version="1.0" encoding="UTF-8"?>
<svg id="Layer_1" xmlns="http://www.w3.org/2000/svg" width="612" height="597.92" version="1.1" viewBox="0 0 612 597.92">
  <!-- Generator: Adobe Illustrator 30.3.0, SVG Export Plug-In . SVG Version: 2.1.3 Build 182)  -->
  <path d="M342.93,240.34c42.3-36.28,87.99-50.64,141.36-40.3,55.66,10.79,94.88,58.72,95.85,123.29,1.08,72.33,0,144.69.53,217.03.13,17.07-7.63,22.5-23.27,22.15-21.98-.49-44-.79-65.95.08-17.35.69-24.08-5.97-23.81-23.59.79-51.77.47-103.55.42-155.33-.01-9.19-.25-18.47-1.42-27.57-5.31-41.16-27.43-60.45-66.2-58.26-33.82,1.91-57.85,28.12-58.32,65.99-.71,57.44-.79,114.91.11,172.35.3,19.18-5.96,27.37-25.61,26.45-21.94-1.03-43.96-.37-65.95-.17-13.05.11-19.42-5.27-19.39-19.04.21-106.39.18-212.78.03-319.17-.02-13.63,6.63-19.21,19.57-19.15,19.15.09,38.3,0,57.45,0q32.44,0,34.64,35.24Z" fill="#1b2b56"/>
  <path d="M43.67,381.41c.03-51.08.63-102.17-.3-153.23-.32-17.86,6.14-24.12,23.51-23.39,22.66.95,45.4.59,68.09.13,13.79-.28,21.19,4.26,21.16,19.4-.25,104.99-.16,209.98-.13,314.97,0,16.11-8.59,22.98-23.96,22.98-21.99,0-43.98.14-65.97.03-15.37-.08-22.89-6.65-22.67-23.41.7-52.49.26-104.99.28-157.48Z" fill="#1b2b56"/>
  <path d="M30.42,91.59c.36-38.92,29.96-68.46,68.73-68.58,38.92-.12,69.25,31.06,68.89,70.83-.33,37.55-32.3,68.52-69.91,67.71-38.08-.82-68.06-31.8-67.71-69.96Z" fill="#1b2b56"/>
</svg>