<?xml version="1.0" encoding="UTF-8"?>
<svg id="Layer_1" xmlns="http://www.w3.org/2000/svg" width="826.65" height="95.03" version="1.1" viewBox="0 0 826.65 95.03">
  <!-- Generator: Adobe Illustrator 30.3.0, SVG Export Plug-In . SVG Version: 2.1.3 Build 182)  -->
  <path d="M91.95,61.08h27.46l-13.73-31.78-13.73,31.78ZM123.73,71.26h-36.1l-6.14,13.92h-12.1l30.15-67.21h12.48l30.05,67.21h-12.19l-6.14-13.92Z" fill="#fff"/>
  <path d="M182.39,28.34h-20.26v23.62h20.26c7.97,0,12.77-4.41,12.77-11.81s-4.8-11.81-12.77-11.81M175.86,62.24h-13.63v22.95h-11.23V17.97h31.49c14.4,0,23.81,8.83,23.81,22.18,0,11.14-6.63,19.11-17.38,21.41l20.45,23.62h-14.02l-19.49-22.95Z" fill="#fff"/>
  <polygon points="270.24 74.91 270.24 85.18 220.21 85.18 220.21 17.97 269.66 17.97 269.66 28.15 231.35 28.15 231.35 46.11 268.03 46.11 268.03 56.09 231.35 56.09 231.35 74.91 270.24 74.91" fill="#fff"/>
  <path d="M283.05,47.72c0-20.45,14.11-34.76,34.28-34.76,9.12,0,17.57,3.55,23.72,9.99l-2.11,2.02c-5.76-5.86-13.35-9.03-21.6-9.03-18.53,0-31.3,12.96-31.3,31.78s12.77,31.78,31.3,31.78c8.35,0,16.04-3.17,21.99-9.03l2.11,2.02c-6.34,6.43-14.98,9.99-24.1,9.99-20.16,0-34.28-14.31-34.28-34.76" fill="#fff"/>
  <path d="M410.46,47.72c0-18.63-12.77-31.78-30.82-31.78s-30.82,13.15-30.82,31.78,12.77,31.78,30.82,31.78,30.82-13.15,30.82-31.78M345.84,47.72c0-20.36,14.02-34.76,33.8-34.76s33.8,14.4,33.8,34.76-14.02,34.76-33.8,34.76-33.8-14.4-33.8-34.76" fill="#fff"/>
  <polygon points="476.13 14.11 476.13 81.32 472.68 81.32 427.07 18.24 427.07 81.32 424.09 81.32 424.09 14.11 427.74 14.11 473.16 76.91 473.16 14.11 476.13 14.11" fill="#fff"/>
  <path d="M486.79,47.72c0-20.45,14.11-34.76,34.28-34.76,9.12,0,17.57,3.55,23.72,9.99l-2.11,2.02c-5.76-5.86-13.35-9.03-21.6-9.03-18.53,0-31.3,12.96-31.3,31.78s12.77,31.78,31.3,31.78c8.35,0,16.04-3.17,21.99-9.03l2.11,2.02c-6.34,6.43-14.98,9.99-24.1,9.99-20.16,0-34.28-14.31-34.28-34.76" fill="#fff"/>
  <rect x="555.53" y="14.11" width="2.98" height="67.21" fill="#fff"/>
  <polygon points="620.53 78.35 620.53 81.32 573.68 81.32 573.68 14.11 619.09 14.11 619.09 17.09 576.65 17.09 576.65 45.89 617.08 45.89 617.08 48.87 576.65 48.87 576.65 78.35 620.53 78.35" fill="#fff"/>
  <path d="M660.09,17.09h-25.64v34.95h25.64c11.33,0,18.43-6.91,18.43-17.48s-7.1-17.47-18.43-17.47M655,55.02h-20.55v26.31h-2.98V14.11h28.61c12.96,0,21.41,8.26,21.41,20.45s-8.45,20.45-21.41,20.45h-1.06l24.48,26.31h-4.03l-24.48-26.31Z" fill="#fff"/>
  <path d="M748.03,47.43v24.39c-6.72,6.91-15.46,10.56-24.96,10.56-20.36,0-34.47-14.21-34.47-34.66s13.92-34.66,34.47-34.66c9.12,0,17.19,3.36,23.91,9.99l-2.02,2.21c-6.05-6.05-13.63-9.22-21.89-9.22-18.82,0-31.49,12.77-31.49,31.68s12.96,31.69,31.49,31.69c8.45,0,16.99-3.55,21.99-8.93v-20.07h-25.25v-2.98h28.23Z" fill="#fff"/>
  <polygon points="806.6 78.35 806.6 81.32 759.74 81.32 759.74 14.11 805.16 14.11 805.16 17.09 762.72 17.09 762.72 45.89 803.14 45.89 803.14 48.87 762.72 48.87 762.72 78.35 806.6 78.35" fill="#fff"/>
  <path d="M60.09,67.32c-.76.75-1.87,1.73-3.43,2.85-1.51,1.13-3.38,2.15-5.6,3.04-2.17.94-4.64,1.41-7.41,1.45h-.1c-3.03,0-5.85-.61-8.52-1.83-2.67-1.22-4.99-2.85-7.06-4.92-2.07-2.01-3.73-4.26-5.04-6.79-1.26-2.48-2.12-5.01-2.47-7.58-.09-.89-.14-1.74-.14-2.58h-8.62c.3-6.14,1.37-11.93,5.23-17.72.2-.42,2.43-3.3,3.92-4.62,1.36-1.2,1.41-1.32,3.9-2.93,5.82-3.78,10.54-4.65,17.45-4.83,5.55-.08,10.47,1.64,13.73,3.5,1.71.97,3.48,2.29,4.95,3.36l-5.35,4.99,1.79,1.85,5.51-4.99,2.04-1.95c-.37-.54-2.37-2.3-2.91-2.69-1.48-1.08-2.6-2.13-4.81-3.22-3.58-1.73-7.19-3.27-12.28-3.6-5.19-.46-10.03.25-14.46,1.67-3.63,1.17-4.92,1.87-7.6,3.64-2.73,1.81-4.21,3.32-5.65,4.88-1.46,1.59-3.26,4.34-3.54,4.83-3.44,5.87-4.74,11.28-4.83,17.84,0,.45,0,.91,0,1.36.15,7.11,2.04,14.23,6.23,19.98,3.1,3.96,5.71,6.27,9.43,8.44,1.42.83,4.6,2.25,6.41,2.92,5.89,2.17,14.44,1.53,15,1.48,6.27-.54,8.26-1.51,11.99-3.01,3.68-1.5,6.5-2.95,8.42-4.35l.66-.47-5.9-10.95-.96.94Z" fill="#fff"/>
</svg>